<?xml version="1.0" encoding="UTF-8"?>
<svg xmlns="http://www.w3.org/2000/svg" width="1024" height="1024" viewBox="0 0 1024 1024" fill="none">
  <path d="M 782.29 212.31 L 757.79 199.25 L 772.49 256.41 L 752.08 298.05 L 733.30 308.67 L 620.61 335.62 L 582.23 328.27 L 559.36 305.40 L 552.01 267.02 L 562.63 231.09 L 539.76 249.06 L 520.17 288.26 L 522.62 333.98 L 545.48 366.65 L 588.76 387.88 L 509.55 507.10 L 279.27 506.28 L 252.33 485.05 L 251.51 467.09 L 261.31 453.21 L 272.74 449.12 L 288.26 461.37 L 308.67 463.82 L 348.68 437.69 L 320.10 416.46 L 298.05 413.19 L 239.26 440.96 L 223.74 471.99 L 228.64 500.57 L 249.88 523.43 L 235.99 555.28 L 235.99 805.97 L 311.94 736.56 L 312.75 806.79 L 387.06 736.56 L 489.95 736.56 L 490.77 806.79 L 567.53 736.56 L 613.26 736.56 L 698.18 803.52 L 698.18 569.16 L 765.96 548.75 L 783.11 527.52 L 755.34 364.20 L 790.46 329.90 L 808.42 289.07 L 804.34 245.79 Z M 649.84 451.34 a 24.54 24.54 0 1 0 49.07 0 a 24.54 24.54 0 1 0 -49.07 0 Z" fill="#4AA19A" fill-rule="evenodd" clip-rule="evenodd"/>
</svg>
